<svg xmlns="http://www.w3.org/2000/svg" viewBox="0 0 443.52 139.33"><defs><style>.cls-1,.cls-2{fill:#fff;}.cls-2{font-size:33.21px;font-family:Manrope-Bold, Manrope;font-weight:700;letter-spacing:0.61em;}</style></defs><g id="Layer_2" data-name="Layer 2"><g id="Layer_2-2" data-name="Layer 2"><path class="cls-1" d="M21.91,129.86H10.46A10.33,10.33,0,0,1,0,119.65V10.32A10.33,10.33,0,0,1,10.46.11h1V119.65A10.33,10.33,0,0,0,21.91,129.86Z"/><path class="cls-1" d="M59.13.11V119.19A10.8,10.8,0,0,1,48.2,129.86H38.63a10.33,10.33,0,0,0,10.46-10.21V.11Z"/><path class="cls-1" d="M20.94.11H59.13a0,0,0,0,1,0,0V119.53A10.33,10.33,0,0,1,48.8,129.86H31.27a10.33,10.33,0,0,1-10.33-10.33V.11A0,0,0,0,1,20.94.11Z"/><path class="cls-1" d="M123.87,66.81a48.87,48.87,0,0,1-25,23.71c-.48.11-1,.21-1.46.29a39.86,39.86,0,0,1-6,.46H21V0H91a40.12,40.12,0,0,1,5.94.45l3.71,1.13a48.9,48.9,0,0,1,23.25,22.88H90A21.44,21.44,0,0,0,68.32,45.64a20.86,20.86,0,0,0,6.35,15,22.85,22.85,0,0,0,15.74,6.21Z"/><path class="cls-1" d="M124.8,34.44H88.9A10.83,10.83,0,0,0,78.13,45.31v.84A10.83,10.83,0,0,0,88.91,57H124.8a5.09,5.09,0,0,0,5.06-5.1V39.55A5.09,5.09,0,0,0,124.8,34.44ZM90,52.4a6.61,6.61,0,1,1,6.55-6.61A6.57,6.57,0,0,1,90,52.4Z"/><path class="cls-1" d="M198.1,36.15a14.76,14.76,0,0,0-4.47-5.84,19.92,19.92,0,0,0-6.91-3.44,32,32,0,0,0-8.89-1.15h-21.5V77.88h5.52a7.28,7.28,0,0,0,7.28-7.28V63.42h6.09a37.52,37.52,0,0,0,13.4-2.09A16.81,16.81,0,0,0,196.83,55a18.36,18.36,0,0,0,2.81-10.39A21.16,21.16,0,0,0,198.1,36.15ZM186,48.84a6.68,6.68,0,0,1-1.9,2.65,7.81,7.81,0,0,1-2.61,1.38,12.07,12.07,0,0,1-3,.51c-1,.06-1.94.08-2.73.08h-6.64V35.6h8.07c.47,0,1.09,0,1.85.08a10.71,10.71,0,0,1,2.49.51,8,8,0,0,1,2.53,1.39,6.6,6.6,0,0,1,1.9,2.61,10.94,10.94,0,0,1,.71,4.26A11.58,11.58,0,0,1,186,48.84Z"/><path class="cls-1" d="M243,72.31c-.07-1.87-.14-3.73-.19-5.57s-.08-3.71-.08-5.61V54.41a31.28,31.28,0,0,0-1-8.53,14.39,14.39,0,0,0-3.28-6.05,13.69,13.69,0,0,0-5.73-3.59,25.49,25.49,0,0,0-8.3-1.19,30,30,0,0,0-6.91.79,19.61,19.61,0,0,0-6,2.45,15,15,0,0,0-4.51,4.42,15.63,15.63,0,0,0-2.41,6.64l11.3,2.45a8.7,8.7,0,0,1,1.58-4,7.31,7.31,0,0,1,3-2.29,9.76,9.76,0,0,1,3.83-.75,7.4,7.4,0,0,1,3.33.67,5.38,5.38,0,0,1,2.05,1.7,4.17,4.17,0,0,1,.72,2.45,2.62,2.62,0,0,1-.8,2A5.84,5.84,0,0,1,227,52.83a36.23,36.23,0,0,1-4.66.87l-6.2,1.15a25.85,25.85,0,0,0-6.29,2A12.09,12.09,0,0,0,205,60.73a11.31,11.31,0,0,0-1.82,6.72,11.56,11.56,0,0,0,1.63,6.4,10.24,10.24,0,0,0,4.38,3.83A14,14,0,0,0,215.26,79a15.69,15.69,0,0,0,7-1.5,14.66,14.66,0,0,0,5.18-4.19,15.87,15.87,0,0,0,2.89-5.85h1.18c.11,2,.21,3.82.32,5.61s.23,3.4.39,4.83h5.54A5.27,5.27,0,0,0,243,72.37.13.13,0,0,0,243,72.31Zm-14-7.11a9.92,9.92,0,0,1-2.33,2.61,10.62,10.62,0,0,1-2.85,1.54,8.45,8.45,0,0,1-2.88.55,5.52,5.52,0,0,1-3.75-1.26,4.35,4.35,0,0,1-1.47-3.48,3.76,3.76,0,0,1,.87-2.57A6.23,6.23,0,0,1,218.81,61a17.39,17.39,0,0,1,3.25-.95q1.81-.36,3.63-.63a17.24,17.24,0,0,0,3.51-.91,1.76,1.76,0,0,0,1.08-1.7l.07,4.63A10.53,10.53,0,0,1,228.93,65.2Z"/><path class="cls-1" d="M263.76,91.64a39.69,39.69,0,0,1-12.09-2,20.82,20.82,0,0,1-5.22-2.57l3-11.85A17.75,17.75,0,0,0,256.1,79a23.12,23.12,0,0,0,7.11,1.23,13.48,13.48,0,0,0,6-1.19A9.55,9.55,0,0,0,273,75.83,13.83,13.83,0,0,0,275,71a32.65,32.65,0,0,0,.67-5.77l.23-6.32h-1.42a25,25,0,0,1-2.25,8.57,11.11,11.11,0,0,1-4.47,4.9,12.87,12.87,0,0,1-6.4,1.54,12.64,12.64,0,0,1-6.68-1.62,11.27,11.27,0,0,1-4.07-4.19,20.26,20.26,0,0,1-2.05-5.45,32.74,32.74,0,0,1-.75-5.41c-.08-1.69-.12-3-.12-4V36.15h12.72V49.59c0,1,0,2.12,0,3.36a25.75,25.75,0,0,0,.36,3.71,16.09,16.09,0,0,0,.95,3.4,5.8,5.8,0,0,0,1.78,2.45,4.59,4.59,0,0,0,3,.91,4.81,4.81,0,0,0,3.6-1.42,9.13,9.13,0,0,0,2.09-3.6,21.82,21.82,0,0,0,.95-4.5,40.48,40.48,0,0,0,.24-4.07V36.15h5.51a7.29,7.29,0,0,1,7.29,7.29V65.71a47.9,47.9,0,0,1-.32,5.22,39,39,0,0,1-1.1,5.77,22.35,22.35,0,0,1-2.37,5.57,20.4,20.4,0,0,1-4,4.82,17,17,0,0,1-6,3.36A27.16,27.16,0,0,1,263.76,91.64Z"/><path class="cls-1" d="M309.55,79a34.5,34.5,0,0,1-7.67-.79,20,20,0,0,1-6-2.37,12.85,12.85,0,0,1-4.11-3.91,12,12,0,0,1-1.86-5.5L300,63.34a7.75,7.75,0,0,0,1.62,3.32A8.17,8.17,0,0,0,305,69a14.1,14.1,0,0,0,5.25.87A10.29,10.29,0,0,0,315,69a2.9,2.9,0,0,0,1.78-2.72,2.33,2.33,0,0,0-.87-1.9,8.46,8.46,0,0,0-2.76-1.3c-1.27-.4-2.9-.83-4.9-1.31q-3.33-.7-6.48-1.62A26,26,0,0,1,296,57.81a11,11,0,0,1-4-3.75,10.65,10.65,0,0,1-1.46-5.73,11.76,11.76,0,0,1,2.14-7.08,13.61,13.61,0,0,1,6.2-4.58,26.38,26.38,0,0,1,9.76-1.62,28.37,28.37,0,0,1,9.13,1.38,15.34,15.34,0,0,1,6.6,4.19,12.45,12.45,0,0,1,3,7.15L316.9,50.38a5.64,5.64,0,0,0-1.19-3.32,6.62,6.62,0,0,0-2.92-2.13,11.58,11.58,0,0,0-4.27-.71,9.06,9.06,0,0,0-4.54.94,2.86,2.86,0,0,0-1.62,2.53,2.58,2.58,0,0,0,1,2.1,8.46,8.46,0,0,0,3.12,1.38q2.08.55,5.09,1.27c2,.36,4,.83,6,1.38a23.53,23.53,0,0,1,5.49,2.29,11.92,11.92,0,0,1,4,3.71,10.4,10.4,0,0,1,1.51,5.89,11.7,11.7,0,0,1-2.22,7.08,13.49,13.49,0,0,1-6.44,4.62A29.93,29.93,0,0,1,309.55,79Z"/><path class="cls-1" d="M338.51,31.4a8.58,8.58,0,0,1-5.57-1.58A5.39,5.39,0,0,1,331,25.4a5.48,5.48,0,0,1,1.94-4.55,10.87,10.87,0,0,1,11.22,0,5.51,5.51,0,0,1,1.94,4.51,5.39,5.39,0,0,1-1.94,4.42A8.71,8.71,0,0,1,338.51,31.4ZM332.19,78V36.23H345V70.67A7.28,7.28,0,0,1,337.71,78Z"/><path class="cls-1" d="M368.32,78.91a17.65,17.65,0,0,1-6.72-1.14,11.19,11.19,0,0,1-4.46-3.24,12.92,12.92,0,0,1-2.45-5.06,27.29,27.29,0,0,1-.75-6.68V46.11h-5.25l-.05-9.24h2.85a8.23,8.23,0,0,0,5-1.66,6.84,6.84,0,0,0,1.9-4.59l.71-3.87h7.27v9.4h10V46.43h-10V62.08c0,2,.5,3.45,1.51,4.19a6.26,6.26,0,0,0,3.79,1.1,10.84,10.84,0,0,0,2.61-.31,8.35,8.35,0,0,0,2.21-.87v7.59A5,5,0,0,1,372,78.71h0C370.65,78.84,369.43,78.91,368.32,78.91Z"/><path class="cls-1" d="M419.79,72.31c-.07-1.87-.15-3.73-.2-5.57s-.08-3.71-.08-5.61V54.41a31.28,31.28,0,0,0-1-8.53,14.28,14.28,0,0,0-3.28-6.05,13.71,13.71,0,0,0-5.72-3.59,25.58,25.58,0,0,0-8.3-1.19,30,30,0,0,0-6.92.79,19.71,19.71,0,0,0-6,2.45,15.06,15.06,0,0,0-4.51,4.42,15.9,15.9,0,0,0-2.41,6.64l11.3,2.45a8.71,8.71,0,0,1,1.59-4,7.21,7.21,0,0,1,2.95-2.29,9.81,9.81,0,0,1,3.84-.75,7.36,7.36,0,0,1,3.32.67,5.31,5.31,0,0,1,2.05,1.7,4.17,4.17,0,0,1,.72,2.45,2.62,2.62,0,0,1-.8,2,5.85,5.85,0,0,1-2.52,1.23,36.09,36.09,0,0,1-4.67.87l-6.2,1.15a26.12,26.12,0,0,0-6.29,2,12.12,12.12,0,0,0-4.81,3.91A11.24,11.24,0,0,0,380,67.45a11.56,11.56,0,0,0,1.63,6.4A10.21,10.21,0,0,0,386,77.68,13.91,13.91,0,0,0,392.09,79a15.66,15.66,0,0,0,7-1.5,14.57,14.57,0,0,0,5.18-4.19,15.57,15.57,0,0,0,2.89-5.85h1.18c.11,2,.21,3.82.32,5.61s.23,3.4.39,4.83h5.54a5.28,5.28,0,0,0,5.26-5.52S419.79,72.33,419.79,72.31Zm-14-7.11a9.75,9.75,0,0,1-2.33,2.61,10.72,10.72,0,0,1-2.84,1.54,8.55,8.55,0,0,1-2.89.55A5.52,5.52,0,0,1,394,68.64a4.35,4.35,0,0,1-1.47-3.48,3.81,3.81,0,0,1,.87-2.57,6.19,6.19,0,0,1,2.3-1.58,17.06,17.06,0,0,1,3.24-.95q1.82-.36,3.63-.63a17.33,17.33,0,0,0,3.52-.91,1.77,1.77,0,0,0,1.07-1.7l.07,4.63A10.35,10.35,0,0,1,405.76,65.2Z"/><text class="cls-2" transform="translate(154.15 129.4)">FINANCE</text></g></g></svg>