<svg xmlns="http://www.w3.org/2000/svg" viewBox="0 0 178.49 192.61"><defs><style>.cls-1{fill:#fff;}</style></defs><g id="Layer_2" data-name="Layer 2"><g id="Layer_2-2" data-name="Layer 2"><path class="cls-1" d="M30.12,192.61H14.37C6.43,192.61,0,185.83,0,177.47V15.31C0,6.94,6.43.16,14.37.16h1.38V177.47C15.75,185.83,22.18,192.61,30.12,192.61Z"/><path class="cls-1" d="M81.27.16V176.78c0,8.74-6.72,15.83-15,15.83H53.1c7.94,0,14.37-6.78,14.37-15.14V.16Z"/><path class="cls-1" d="M28.78.16H81.27a0,0,0,0,1,0,0V177.86a14.75,14.75,0,0,1-14.75,14.75h-23a14.75,14.75,0,0,1-14.75-14.75V.16A0,0,0,0,1,28.78.16Z"/><path class="cls-1" d="M170.26,99.09c-7.09,15.78-19.35,28.37-34.42,35.17-.65.17-1.33.32-2,.43a50.25,50.25,0,0,1-8.27.68H28.84V0H125a50,50,0,0,1,8.16.67l5.1,1.68a69.87,69.87,0,0,1,32,33.94H123.72c-16.47,0-29.82,14.05-29.82,31.4a32.15,32.15,0,0,0,8.73,22.19,30.25,30.25,0,0,0,21.64,9.21Z"/><path class="cls-1" d="M171.54,51.09H122.19c-8.17,0-14.79,7.22-14.79,16.11v1.26c0,8.91,6.62,16.13,14.81,16.13h49.33c3.84,0,7-3.4,7-7.57V58.67C178.49,54.48,175.38,51.09,171.54,51.09ZM123.69,77.73c-5,0-9-4.39-9-9.81s4-9.79,9-9.79,9,4.39,9,9.79S128.66,77.73,123.69,77.73Z"/></g></g></svg>